<svg width="1440" height="34" viewBox="0 0 1440 34" fill="none" xmlns="http://www.w3.org/2000/svg">
<path d="M1128.25 0C1121.98 13.4572 1102.85 13.4572 1096.58 0L1128.25 0Z" fill="#DED3CF"/>
<path d="M1317.75 0C1311.48 13.4572 1292.35 13.4572 1286.08 0L1317.75 0Z" fill="#DED3CF"/>
<path d="M939.002 0C932.735 13.4572 913.601 13.4572 907.334 0L939.002 0Z" fill="#DED3CF"/>
<path d="M1412.25 0C1405.98 13.4572 1386.85 13.4572 1380.58 0L1412.25 0Z" fill="#DED3CF"/>
<path d="M1033.5 0C1027.23 13.4572 1008.1 13.4572 1001.83 0L1033.5 0Z" fill="#DED3CF"/>
<path d="M1223 0C1216.73 13.4572 1197.6 13.4572 1191.33 0L1223 0Z" fill="#DED3CF"/>
<path d="M844.251 0C837.984 13.4572 818.85 13.4572 812.583 0L844.251 0Z" fill="#DED3CF"/>
<path d="M1096.58 0C1090.39 13.3947 1071.36 13.3947 1065.17 0L1096.58 0Z" fill="#DED3CF"/>
<path d="M1286.08 0C1279.9 13.3947 1260.86 13.3947 1254.67 0L1286.08 0Z" fill="#DED3CF"/>
<path d="M907.334 0C901.146 13.3947 882.107 13.3947 875.919 0L907.334 0Z" fill="#DED3CF"/>
<path d="M1380.58 0C1374.39 13.3947 1355.35 13.3947 1349.17 0L1380.58 0Z" fill="#DED3CF"/>
<path d="M1001.83 0C995.643 13.3947 976.604 13.3947 970.416 0L1001.83 0Z" fill="#DED3CF"/>
<path d="M1191.33 0C1185.14 13.3947 1166.11 13.3947 1159.92 0L1191.33 0Z" fill="#DED3CF"/>
<path d="M812.583 0C806.395 13.3947 787.356 13.3947 781.168 0L812.583 0Z" fill="#DED3CF"/>
<path d="M1443.92 0C1437.65 13.4572 1418.52 13.4572 1412.25 0L1443.92 0Z" fill="#DED3CF"/>
<path d="M1065.17 0C1058.9 13.4572 1039.77 13.4572 1033.5 0L1065.17 0Z" fill="#DED3CF"/>
<path d="M1254.67 0C1248.4 13.4572 1229.27 13.4572 1223 0L1254.67 0Z" fill="#DED3CF"/>
<path d="M875.919 0C869.652 13.4572 850.518 13.4572 844.251 0L875.919 0Z" fill="#DED3CF"/>
<path d="M1349.17 0C1342.9 13.4572 1323.77 13.4572 1317.5 0L1349.17 0Z" fill="#DED3CF"/>
<path d="M970.417 0C964.149 13.4572 945.016 13.4572 938.748 0L970.417 0Z" fill="#DED3CF"/>
<path d="M1159.92 0C1153.65 13.4572 1134.52 13.4572 1128.25 0L1159.92 0Z" fill="#DED3CF"/>
<path d="M781.168 0C774.901 13.4572 755.767 13.4572 749.5 0L781.168 0Z" fill="#DED3CF"/>
<path d="M749.5 0C743.233 13.4572 724.099 13.4572 717.832 0L749.5 0Z" fill="#DED3CF"/>
<path d="M370.75 0C364.483 13.4572 345.349 13.4572 339.082 0L370.75 0Z" fill="#DED3CF"/>
<path d="M560.252 0C553.985 13.4572 534.851 13.4572 528.584 0L560.252 0Z" fill="#DED3CF"/>
<path d="M181.502 0C175.234 13.4572 156.101 13.4572 149.834 0L181.502 0Z" fill="#DED3CF"/>
<path d="M654.749 0C648.482 13.4572 629.348 13.4572 623.081 0L654.749 0Z" fill="#DED3CF"/>
<path d="M275.999 0C269.732 13.4572 250.598 13.4572 244.331 0L275.999 0Z" fill="#DED3CF"/>
<path d="M465.501 0C459.234 13.4572 440.1 13.4572 433.833 0L465.501 0Z" fill="#DED3CF"/>
<path d="M86.7509 0C80.4838 13.4572 61.3499 13.4572 55.0828 0L86.7509 0Z" fill="#DED3CF"/>
<path d="M717.832 0C711.644 13.3947 692.605 13.3947 686.417 0L717.832 0Z" fill="#DED3CF"/>
<path d="M339.082 0C332.894 13.3947 313.855 13.3947 307.667 0L339.082 0Z" fill="#DED3CF"/>
<path d="M528.584 0C522.396 13.3947 503.357 13.3947 497.169 0L528.584 0Z" fill="#DED3CF"/>
<path d="M149.834 0C143.646 13.3947 124.607 13.3947 118.419 0L149.834 0Z" fill="#DED3CF"/>
<path d="M623.081 0C616.893 13.3947 597.855 13.3947 591.666 0L623.081 0Z" fill="#DED3CF"/>
<path d="M244.331 0C238.143 13.3947 219.105 13.3947 212.916 0L244.331 0Z" fill="#DED3CF"/>
<path d="M433.833 0C427.645 13.3947 408.606 13.3947 402.418 0L433.833 0Z" fill="#DED3CF"/>
<path d="M55.0829 0C48.8948 13.3947 29.8563 13.3947 23.6682 0L55.0829 0Z" fill="#DED3CF"/>
<path d="M686.417 0C680.15 13.4572 661.016 13.4572 654.749 0L686.417 0Z" fill="#DED3CF"/>
<path d="M307.667 0C301.4 13.4572 282.266 13.4572 275.999 0L307.667 0Z" fill="#DED3CF"/>
<path d="M497.169 0C490.902 13.4572 471.768 13.4572 465.501 0L497.169 0Z" fill="#DED3CF"/>
<path d="M118.419 0C112.152 13.4572 93.0179 13.4572 86.7508 0L118.419 0Z" fill="#DED3CF"/>
<path d="M591.666 0C585.399 13.4572 566.265 13.4572 559.998 0L591.666 0Z" fill="#DED3CF"/>
<path d="M212.916 0C206.649 13.4572 187.515 13.4572 181.248 0L212.916 0Z" fill="#DED3CF"/>
<path d="M402.418 0C396.151 13.4572 377.017 13.4572 370.75 0L402.418 0Z" fill="#DED3CF"/>
<path d="M23.6681 0C17.401 13.4572 -1.73287 13.4572 -7.99997 0L23.6681 0Z" fill="#DED3CF"/>
</svg>
