<svg width="1440" height="1402" viewBox="0 0 1440 1402" fill="none" xmlns="http://www.w3.org/2000/svg">
<rect y="756" width="1440" height="646" fill="#261A13"/>
<rect y="34" width="1440" height="722" fill="#DED3CF"/>
<path d="M0 34C5.78206 20.9377 24.3183 20.9377 30.1003 34H0Z" fill="#DED3CF"/>
<path d="M360 34C365.782 20.9377 384.318 20.9377 390.1 34H360Z" fill="#DED3CF"/>
<path d="M179.88 34C185.662 20.9377 204.198 20.9377 209.98 34H179.88Z" fill="#DED3CF"/>
<path d="M539.88 34C545.662 20.9377 564.198 20.9377 569.98 34H539.88Z" fill="#DED3CF"/>
<path d="M90.0602 34C95.8423 20.9377 114.378 20.9377 120.161 34H90.0602Z" fill="#DED3CF"/>
<path d="M450.06 34C455.842 20.9377 474.378 20.9377 480.161 34H450.06Z" fill="#DED3CF"/>
<path d="M269.94 34C275.722 20.9377 294.258 20.9377 300.04 34H269.94Z" fill="#DED3CF"/>
<path d="M629.94 34C635.722 20.9377 654.258 20.9377 660.04 34H629.94Z" fill="#DED3CF"/>
<path d="M30.1003 34C35.8087 21.0001 54.2515 21.0001 59.9599 34H30.1003Z" fill="#DED3CF"/>
<path d="M390.1 34C395.809 21.0001 414.252 21.0001 419.96 34H390.1Z" fill="#DED3CF"/>
<path d="M209.98 34C215.688 21.0001 234.131 21.0001 239.839 34H209.98Z" fill="#DED3CF"/>
<path d="M569.98 34C575.688 21.0001 594.131 21.0001 599.839 34H569.98Z" fill="#DED3CF"/>
<path d="M120.161 34C125.869 21.0001 144.312 21.0001 150.02 34H120.161Z" fill="#DED3CF"/>
<path d="M480.161 34C485.869 21.0001 504.312 21.0001 510.02 34H480.161Z" fill="#DED3CF"/>
<path d="M300.04 34C305.749 21.0001 324.191 21.0001 329.9 34H300.04Z" fill="#DED3CF"/>
<path d="M660.04 34C665.748 21.0001 684.191 21.0001 689.9 34H660.04Z" fill="#DED3CF"/>
<path d="M59.9599 34C65.7419 20.9377 84.2781 20.9377 90.0602 34H59.9599Z" fill="#DED3CF"/>
<path d="M419.96 34C425.742 20.9377 444.278 20.9377 450.06 34H419.96Z" fill="#DED3CF"/>
<path d="M239.839 34C245.622 20.9377 264.158 20.9377 269.94 34H239.839Z" fill="#DED3CF"/>
<path d="M599.839 34C605.622 20.9377 624.158 20.9377 629.94 34H599.839Z" fill="#DED3CF"/>
<path d="M150.02 34C155.802 20.9377 174.338 20.9377 180.12 34H150.02Z" fill="#DED3CF"/>
<path d="M510.02 34C515.802 20.9377 534.338 20.9377 540.12 34H510.02Z" fill="#DED3CF"/>
<path d="M329.9 34C335.682 20.9377 354.218 20.9377 360 34H329.9Z" fill="#DED3CF"/>
<path d="M689.9 34C695.682 20.9377 714.218 20.9377 720 34H689.9Z" fill="#DED3CF"/>
<path d="M720 34C725.782 20.9377 744.318 20.9377 750.1 34H720Z" fill="#DED3CF"/>
<path d="M1080 34C1085.78 20.9377 1104.32 20.9377 1110.1 34H1080Z" fill="#DED3CF"/>
<path d="M899.88 34C905.662 20.9377 924.198 20.9377 929.98 34H899.88Z" fill="#DED3CF"/>
<path d="M1259.88 34C1265.66 20.9377 1284.2 20.9377 1289.98 34H1259.88Z" fill="#DED3CF"/>
<path d="M810.06 34C815.842 20.9377 834.378 20.9377 840.161 34H810.06Z" fill="#DED3CF"/>
<path d="M1170.06 34C1175.84 20.9377 1194.38 20.9377 1200.16 34H1170.06Z" fill="#DED3CF"/>
<path d="M989.94 34C995.722 20.9377 1014.26 20.9377 1020.04 34H989.94Z" fill="#DED3CF"/>
<path d="M1349.94 34C1355.72 20.9377 1374.26 20.9377 1380.04 34H1349.94Z" fill="#DED3CF"/>
<path d="M750.1 34C755.809 21.0001 774.251 21.0001 779.96 34H750.1Z" fill="#DED3CF"/>
<path d="M1110.1 34C1115.81 21.0001 1134.25 21.0001 1139.96 34H1110.1Z" fill="#DED3CF"/>
<path d="M929.98 34C935.688 21.0001 954.131 21.0001 959.839 34H929.98Z" fill="#DED3CF"/>
<path d="M1289.98 34C1295.69 21.0001 1314.13 21.0001 1319.84 34H1289.98Z" fill="#DED3CF"/>
<path d="M840.161 34C845.869 21.0001 864.312 21.0001 870.02 34H840.161Z" fill="#DED3CF"/>
<path d="M1200.16 34C1205.87 21.0001 1224.31 21.0001 1230.02 34H1200.16Z" fill="#DED3CF"/>
<path d="M1020.04 34C1025.75 21.0001 1044.19 21.0001 1049.9 34H1020.04Z" fill="#DED3CF"/>
<path d="M1380.04 34C1385.75 21.0001 1404.19 21.0001 1409.9 34H1380.04Z" fill="#DED3CF"/>
<path d="M779.96 34C785.742 20.9377 804.278 20.9377 810.06 34H779.96Z" fill="#DED3CF"/>
<path d="M1139.96 34C1145.74 20.9377 1164.28 20.9377 1170.06 34H1139.96Z" fill="#DED3CF"/>
<path d="M959.839 34C965.622 20.9377 984.158 20.9377 989.94 34H959.839Z" fill="#DED3CF"/>
<path d="M1319.84 34C1325.62 20.9377 1344.16 20.9377 1349.94 34H1319.84Z" fill="#DED3CF"/>
<path d="M870.02 34C875.802 20.9377 894.338 20.9377 900.12 34H870.02Z" fill="#DED3CF"/>
<path d="M1230.02 34C1235.8 20.9377 1254.34 20.9377 1260.12 34H1230.02Z" fill="#DED3CF"/>
<path d="M1049.9 34C1055.68 20.9377 1074.22 20.9377 1080 34H1049.9Z" fill="#DED3CF"/>
<path d="M1409.9 34C1415.68 20.9377 1434.22 20.9377 1440 34H1409.9Z" fill="#DED3CF"/>
<path d="M1440 753C1434.22 766.062 1415.68 766.062 1409.9 753H1440Z" fill="#DED3CF"/>
<path d="M1080 753C1074.22 766.062 1055.68 766.062 1049.9 753H1080Z" fill="#DED3CF"/>
<path d="M1260.12 753C1254.34 766.062 1235.8 766.062 1230.02 753H1260.12Z" fill="#DED3CF"/>
<path d="M900.12 753C894.338 766.062 875.802 766.062 870.02 753H900.12Z" fill="#DED3CF"/>
<path d="M1349.94 753C1344.16 766.062 1325.62 766.062 1319.84 753H1349.94Z" fill="#DED3CF"/>
<path d="M989.94 753C984.158 766.062 965.622 766.062 959.839 753H989.94Z" fill="#DED3CF"/>
<path d="M1170.06 753C1164.28 766.062 1145.74 766.062 1139.96 753H1170.06Z" fill="#DED3CF"/>
<path d="M810.06 753C804.278 766.062 785.742 766.062 779.96 753H810.06Z" fill="#DED3CF"/>
<path d="M1409.9 753C1404.19 766 1385.75 766 1380.04 753H1409.9Z" fill="#DED3CF"/>
<path d="M1049.9 753C1044.19 766 1025.75 766 1020.04 753H1049.9Z" fill="#DED3CF"/>
<path d="M1230.02 753C1224.31 766 1205.87 766 1200.16 753H1230.02Z" fill="#DED3CF"/>
<path d="M870.02 753C864.312 766 845.869 766 840.161 753H870.02Z" fill="#DED3CF"/>
<path d="M1319.84 753C1314.13 766 1295.69 766 1289.98 753H1319.84Z" fill="#DED3CF"/>
<path d="M959.839 753C954.131 766 935.688 766 929.98 753H959.839Z" fill="#DED3CF"/>
<path d="M1139.96 753C1134.25 766 1115.81 766 1110.1 753H1139.96Z" fill="#DED3CF"/>
<path d="M779.96 753C774.252 766 755.809 766 750.1 753H779.96Z" fill="#DED3CF"/>
<path d="M1380.04 753C1374.26 766.062 1355.72 766.062 1349.94 753H1380.04Z" fill="#DED3CF"/>
<path d="M1020.04 753C1014.26 766.062 995.722 766.062 989.94 753H1020.04Z" fill="#DED3CF"/>
<path d="M1200.16 753C1194.38 766.062 1175.84 766.062 1170.06 753H1200.16Z" fill="#DED3CF"/>
<path d="M840.161 753C834.378 766.062 815.842 766.062 810.06 753H840.161Z" fill="#DED3CF"/>
<path d="M1289.98 753C1284.2 766.062 1265.66 766.062 1259.88 753H1289.98Z" fill="#DED3CF"/>
<path d="M929.98 753C924.198 766.062 905.662 766.062 899.88 753H929.98Z" fill="#DED3CF"/>
<path d="M1110.1 753C1104.32 766.062 1085.78 766.062 1080 753H1110.1Z" fill="#DED3CF"/>
<path d="M750.1 753C744.318 766.062 725.782 766.062 720 753H750.1Z" fill="#DED3CF"/>
<path d="M720 753C714.218 766.062 695.682 766.062 689.9 753H720Z" fill="#DED3CF"/>
<path d="M360 753C354.218 766.062 335.682 766.062 329.9 753H360Z" fill="#DED3CF"/>
<path d="M540.12 753C534.338 766.062 515.802 766.062 510.02 753H540.12Z" fill="#DED3CF"/>
<path d="M180.12 753C174.338 766.062 155.802 766.062 150.02 753H180.12Z" fill="#DED3CF"/>
<path d="M629.94 753C624.158 766.062 605.622 766.062 599.839 753H629.94Z" fill="#DED3CF"/>
<path d="M269.94 753C264.158 766.062 245.622 766.062 239.839 753H269.94Z" fill="#DED3CF"/>
<path d="M450.06 753C444.278 766.062 425.742 766.062 419.96 753H450.06Z" fill="#DED3CF"/>
<path d="M90.0602 753C84.2781 766.062 65.7419 766.062 59.9598 753H90.0602Z" fill="#DED3CF"/>
<path d="M689.9 753C684.191 766 665.749 766 660.04 753H689.9Z" fill="#DED3CF"/>
<path d="M329.9 753C324.191 766 305.749 766 300.04 753H329.9Z" fill="#DED3CF"/>
<path d="M510.02 753C504.312 766 485.869 766 480.161 753H510.02Z" fill="#DED3CF"/>
<path d="M150.02 753C144.312 766 125.869 766 120.16 753H150.02Z" fill="#DED3CF"/>
<path d="M599.839 753C594.131 766 575.688 766 569.98 753H599.839Z" fill="#DED3CF"/>
<path d="M239.839 753C234.131 766 215.688 766 209.98 753H239.839Z" fill="#DED3CF"/>
<path d="M419.96 753C414.251 766 395.809 766 390.1 753H419.96Z" fill="#DED3CF"/>
<path d="M59.96 753C54.2516 766 35.8088 766 30.1004 753H59.96Z" fill="#DED3CF"/>
<path d="M660.04 753C654.258 766.062 635.722 766.062 629.94 753H660.04Z" fill="#DED3CF"/>
<path d="M300.04 753C294.258 766.062 275.722 766.062 269.94 753H300.04Z" fill="#DED3CF"/>
<path d="M480.161 753C474.378 766.062 455.842 766.062 450.06 753H480.161Z" fill="#DED3CF"/>
<path d="M120.161 753C114.378 766.062 95.8423 766.062 90.0602 753H120.161Z" fill="#DED3CF"/>
<path d="M569.98 753C564.198 766.062 545.662 766.062 539.88 753H569.98Z" fill="#DED3CF"/>
<path d="M209.98 753C204.198 766.062 185.662 766.062 179.88 753H209.98Z" fill="#DED3CF"/>
<path d="M390.1 753C384.318 766.062 365.782 766.062 360 753H390.1Z" fill="#DED3CF"/>
<path d="M30.1003 753C24.3183 766.062 5.78207 766.062 9.53674e-06 753H30.1003Z" fill="#DED3CF"/>
</svg>
