<svg width="1440" height="34" viewBox="0 0 1440 34" fill="none" xmlns="http://www.w3.org/2000/svg">
<path d="M1440 0C1434.22 13.0623 1415.68 13.0623 1409.9 0L1440 0Z" fill="#261A13"/>
<path d="M1080 0C1074.22 13.0623 1055.68 13.0623 1049.9 0L1080 0Z" fill="#261A13"/>
<path d="M1260.12 0C1254.34 13.0623 1235.8 13.0623 1230.02 0L1260.12 0Z" fill="#261A13"/>
<path d="M900.12 0C894.338 13.0623 875.802 13.0623 870.02 0L900.12 0Z" fill="#261A13"/>
<path d="M1349.94 0C1344.16 13.0623 1325.62 13.0623 1319.84 0L1349.94 0Z" fill="#261A13"/>
<path d="M989.94 0C984.158 13.0623 965.622 13.0623 959.839 0L989.94 0Z" fill="#261A13"/>
<path d="M1170.06 0C1164.28 13.0623 1145.74 13.0623 1139.96 0L1170.06 0Z" fill="#261A13"/>
<path d="M810.06 0C804.278 13.0623 785.742 13.0623 779.96 0L810.06 0Z" fill="#261A13"/>
<path d="M1409.9 0C1404.19 12.9999 1385.75 12.9999 1380.04 0L1409.9 0Z" fill="#261A13"/>
<path d="M1049.9 0C1044.19 12.9999 1025.75 12.9999 1020.04 0L1049.9 0Z" fill="#261A13"/>
<path d="M1230.02 0C1224.31 12.9999 1205.87 12.9999 1200.16 0L1230.02 0Z" fill="#261A13"/>
<path d="M870.02 0C864.312 12.9999 845.869 12.9999 840.161 0L870.02 0Z" fill="#261A13"/>
<path d="M1319.84 0C1314.13 12.9999 1295.69 12.9999 1289.98 0L1319.84 0Z" fill="#261A13"/>
<path d="M959.839 0C954.131 12.9999 935.688 12.9999 929.98 0L959.839 0Z" fill="#261A13"/>
<path d="M1139.96 0C1134.25 12.9999 1115.81 12.9999 1110.1 0L1139.96 0Z" fill="#261A13"/>
<path d="M779.96 0C774.252 12.9999 755.809 12.9999 750.1 0L779.96 0Z" fill="#261A13"/>
<path d="M1380.04 0C1374.26 13.0623 1355.72 13.0623 1349.94 0L1380.04 0Z" fill="#261A13"/>
<path d="M1020.04 0C1014.26 13.0623 995.722 13.0623 989.94 0L1020.04 0Z" fill="#261A13"/>
<path d="M1200.16 0C1194.38 13.0623 1175.84 13.0623 1170.06 0L1200.16 0Z" fill="#261A13"/>
<path d="M840.161 0C834.378 13.0623 815.842 13.0623 810.06 0L840.161 0Z" fill="#261A13"/>
<path d="M1289.98 0C1284.2 13.0623 1265.66 13.0623 1259.88 0L1289.98 0Z" fill="#261A13"/>
<path d="M929.98 0C924.198 13.0623 905.662 13.0623 899.88 0L929.98 0Z" fill="#261A13"/>
<path d="M1110.1 0C1104.32 13.0623 1085.78 13.0623 1080 0L1110.1 0Z" fill="#261A13"/>
<path d="M750.1 0C744.318 13.0623 725.782 13.0623 720 0L750.1 0Z" fill="#261A13"/>
<path d="M720 0C714.218 13.0623 695.682 13.0623 689.9 0L720 0Z" fill="#261A13"/>
<path d="M360 0C354.218 13.0623 335.682 13.0623 329.9 0L360 0Z" fill="#261A13"/>
<path d="M540.12 0C534.338 13.0623 515.802 13.0623 510.02 0L540.12 0Z" fill="#261A13"/>
<path d="M180.12 0C174.338 13.0623 155.802 13.0623 150.02 0L180.12 0Z" fill="#261A13"/>
<path d="M629.94 0C624.158 13.0623 605.622 13.0623 599.839 0L629.94 0Z" fill="#261A13"/>
<path d="M269.94 0C264.158 13.0623 245.622 13.0623 239.839 0L269.94 0Z" fill="#261A13"/>
<path d="M450.06 0C444.278 13.0623 425.742 13.0623 419.96 0L450.06 0Z" fill="#261A13"/>
<path d="M90.0602 0C84.2781 13.0623 65.7419 13.0623 59.9598 0L90.0602 0Z" fill="#261A13"/>
<path d="M689.9 0C684.191 12.9999 665.749 12.9999 660.04 0L689.9 0Z" fill="#261A13"/>
<path d="M329.9 0C324.191 12.9999 305.749 12.9999 300.04 0L329.9 0Z" fill="#261A13"/>
<path d="M510.02 0C504.312 12.9999 485.869 12.9999 480.161 0L510.02 0Z" fill="#261A13"/>
<path d="M150.02 0C144.312 12.9999 125.869 12.9999 120.16 0L150.02 0Z" fill="#261A13"/>
<path d="M599.839 0C594.131 12.9999 575.688 12.9999 569.98 0L599.839 0Z" fill="#261A13"/>
<path d="M239.839 0C234.131 12.9999 215.688 12.9999 209.98 0L239.839 0Z" fill="#261A13"/>
<path d="M419.96 0C414.251 12.9999 395.809 12.9999 390.1 0L419.96 0Z" fill="#261A13"/>
<path d="M59.96 0C54.2516 12.9999 35.8088 12.9999 30.1004 0L59.96 0Z" fill="#261A13"/>
<path d="M660.04 0C654.258 13.0623 635.722 13.0623 629.94 0L660.04 0Z" fill="#261A13"/>
<path d="M300.04 0C294.258 13.0623 275.722 13.0623 269.94 0L300.04 0Z" fill="#261A13"/>
<path d="M480.161 0C474.378 13.0623 455.842 13.0623 450.06 0L480.161 0Z" fill="#261A13"/>
<path d="M120.161 0C114.378 13.0623 95.8423 13.0623 90.0602 0L120.161 0Z" fill="#261A13"/>
<path d="M569.98 0C564.198 13.0623 545.662 13.0623 539.88 0L569.98 0Z" fill="#261A13"/>
<path d="M209.98 0C204.198 13.0623 185.662 13.0623 179.88 0L209.98 0Z" fill="#261A13"/>
<path d="M390.1 0C384.318 13.0623 365.782 13.0623 360 0L390.1 0Z" fill="#261A13"/>
<path d="M30.1003 0C24.3183 13.0623 5.78207 13.0623 9.53674e-06 0L30.1003 0Z" fill="#261A13"/>
</svg>
