<svg width="270" height="58" viewBox="0 0 270 58" fill="none" xmlns="http://www.w3.org/2000/svg">
<path d="M101.568 0.0115007C183.562 0.463944 206.851 5.80438 207.409 6.00017C224.051 5.60766 264.047 3.29906 267.906 15.949C272.733 31.7699 271.218 54.6017 241.452 57.5315C217.64 59.8754 106.554 52.6822 51.3137 52.2916C38.4421 53.4635 8.60155 59.5313 2.16567 42.6557C-2.98305 36.5617 2.39365 19.6645 4.48134 15.9491C4.43016 12.1068 20.9804 -0.43318 101.568 0.0115007Z" fill="#FD92BC"/>
<path d="M39.1797 31.8281C39.1797 32.8594 38.8073 33.6719 38.0625 34.2656C37.3229 34.8594 36.2917 35.1562 34.9688 35.1562C33.75 35.1562 32.6719 34.9271 31.7344 34.4688V32.2188C32.5052 32.5625 33.1562 32.8047 33.6875 32.9453C34.224 33.0859 34.7135 33.1562 35.1562 33.1562C35.6875 33.1562 36.0938 33.0547 36.375 32.8516C36.6615 32.6484 36.8047 32.3464 36.8047 31.9453C36.8047 31.7214 36.7422 31.5234 36.6172 31.3516C36.4922 31.1745 36.3073 31.0052 36.0625 30.8438C35.8229 30.6823 35.3307 30.4245 34.5859 30.0703C33.888 29.7422 33.3646 29.4271 33.0156 29.125C32.6667 28.8229 32.388 28.4714 32.1797 28.0703C31.9714 27.6693 31.8672 27.2005 31.8672 26.6641C31.8672 25.6536 32.2083 24.8594 32.8906 24.2812C33.5781 23.7031 34.526 23.4141 35.7344 23.4141C36.3281 23.4141 36.8932 23.4844 37.4297 23.625C37.9714 23.7656 38.5365 23.9635 39.125 24.2188L38.3438 26.1016C37.7344 25.8516 37.2292 25.6771 36.8281 25.5781C36.4323 25.4792 36.0417 25.4297 35.6562 25.4297C35.1979 25.4297 34.8464 25.5365 34.6016 25.75C34.3568 25.9635 34.2344 26.2422 34.2344 26.5859C34.2344 26.7995 34.2839 26.987 34.3828 27.1484C34.4818 27.3047 34.638 27.4583 34.8516 27.6094C35.0703 27.7552 35.5833 28.0208 36.3906 28.4062C37.4583 28.9167 38.1901 29.4297 38.5859 29.9453C38.9818 30.4557 39.1797 31.0833 39.1797 31.8281ZM51.6172 29.2734C51.6172 31.1641 51.1484 32.6172 50.2109 33.6328C49.2734 34.6484 47.9297 35.1562 46.1797 35.1562C44.4297 35.1562 43.0859 34.6484 42.1484 33.6328C41.2109 32.6172 40.7422 31.1589 40.7422 29.2578C40.7422 27.3568 41.2109 25.9062 42.1484 24.9062C43.0911 23.901 44.4401 23.3984 46.1953 23.3984C47.9505 23.3984 49.2917 23.9036 50.2188 24.9141C51.151 25.9245 51.6172 27.3776 51.6172 29.2734ZM43.2812 29.2734C43.2812 30.5495 43.5234 31.5104 44.0078 32.1562C44.4922 32.8021 45.2161 33.125 46.1797 33.125C48.112 33.125 49.0781 31.8411 49.0781 29.2734C49.0781 26.7005 48.1172 25.4141 46.1953 25.4141C45.2318 25.4141 44.5052 25.7396 44.0156 26.3906C43.526 27.0365 43.2812 27.9974 43.2812 29.2734ZM53.9844 35V23.5781H56.4062V33H61.0391V35H53.9844ZM63.0312 35V23.5781H65.4531V35H63.0312ZM73.1797 25.4297C72.2682 25.4297 71.5625 25.7734 71.0625 26.4609C70.5625 27.1432 70.3125 28.0964 70.3125 29.3203C70.3125 31.8672 71.2682 33.1406 73.1797 33.1406C73.9818 33.1406 74.9531 32.9401 76.0938 32.5391V34.5703C75.1562 34.9609 74.1094 35.1562 72.9531 35.1562C71.2917 35.1562 70.0208 34.6536 69.1406 33.6484C68.2604 32.638 67.8203 31.1901 67.8203 29.3047C67.8203 28.1172 68.0365 27.0781 68.4688 26.1875C68.901 25.2917 69.5208 24.6068 70.3281 24.1328C71.1406 23.6536 72.0911 23.4141 73.1797 23.4141C74.2891 23.4141 75.4036 23.6823 76.5234 24.2188L75.7422 26.1875C75.3151 25.9844 74.8854 25.8073 74.4531 25.6562C74.0208 25.5052 73.5964 25.4297 73.1797 25.4297ZM78.5312 35V23.5781H80.9531V35H78.5312ZM88.2344 35H85.8125V25.5938H82.7109V23.5781H91.3359V25.5938H88.2344V35ZM99.6719 35H93.0938V23.5781H99.6719V25.5625H95.5156V28.0703H99.3828V30.0547H95.5156V33H99.6719V35ZM115.516 23.5781V30.9688C115.516 31.8125 115.326 32.5521 114.945 33.1875C114.57 33.8229 114.026 34.3099 113.312 34.6484C112.599 34.987 111.755 35.1562 110.781 35.1562C109.312 35.1562 108.172 34.7812 107.359 34.0312C106.547 33.276 106.141 32.2448 106.141 30.9375V23.5781H108.555V30.5703C108.555 31.4505 108.732 32.0964 109.086 32.5078C109.44 32.9193 110.026 33.125 110.844 33.125C111.635 33.125 112.208 32.9193 112.562 32.5078C112.922 32.0911 113.102 31.4401 113.102 30.5547V23.5781H115.516ZM123.148 35L120.398 26.0391H120.328C120.427 27.862 120.477 29.0781 120.477 29.6875V35H118.312V23.5781H121.609L124.312 32.3125H124.359L127.227 23.5781H130.523V35H128.266V29.5938C128.266 29.3385 128.268 29.0443 128.273 28.7109C128.284 28.3776 128.32 27.4922 128.383 26.0547H128.312L125.367 35H123.148ZM147.93 29.2734C147.93 31.1641 147.461 32.6172 146.523 33.6328C145.586 34.6484 144.242 35.1562 142.492 35.1562C140.742 35.1562 139.398 34.6484 138.461 33.6328C137.523 32.6172 137.055 31.1589 137.055 29.2578C137.055 27.3568 137.523 25.9062 138.461 24.9062C139.404 23.901 140.753 23.3984 142.508 23.3984C144.263 23.3984 145.604 23.9036 146.531 24.9141C147.464 25.9245 147.93 27.3776 147.93 29.2734ZM139.594 29.2734C139.594 30.5495 139.836 31.5104 140.32 32.1562C140.805 32.8021 141.529 33.125 142.492 33.125C144.424 33.125 145.391 31.8411 145.391 29.2734C145.391 26.7005 144.43 25.4141 142.508 25.4141C141.544 25.4141 140.818 25.7396 140.328 26.3906C139.839 27.0365 139.594 27.9974 139.594 29.2734ZM152.719 28.6484H153.5C154.266 28.6484 154.831 28.5208 155.195 28.2656C155.56 28.0104 155.742 27.6094 155.742 27.0625C155.742 26.5208 155.555 26.1354 155.18 25.9062C154.81 25.6771 154.234 25.5625 153.453 25.5625H152.719V28.6484ZM152.719 30.6172V35H150.297V23.5781H153.625C155.177 23.5781 156.326 23.862 157.07 24.4297C157.815 24.9922 158.188 25.849 158.188 27C158.188 27.6719 158.003 28.2708 157.633 28.7969C157.263 29.3177 156.74 29.7266 156.062 30.0234C157.781 32.5911 158.901 34.25 159.422 35H156.734L154.008 30.6172H152.719ZM165.711 25.4297C164.799 25.4297 164.094 25.7734 163.594 26.4609C163.094 27.1432 162.844 28.0964 162.844 29.3203C162.844 31.8672 163.799 33.1406 165.711 33.1406C166.513 33.1406 167.484 32.9401 168.625 32.5391V34.5703C167.688 34.9609 166.641 35.1562 165.484 35.1562C163.823 35.1562 162.552 34.6536 161.672 33.6484C160.792 32.638 160.352 31.1901 160.352 29.3047C160.352 28.1172 160.568 27.0781 161 26.1875C161.432 25.2917 162.052 24.6068 162.859 24.1328C163.672 23.6536 164.622 23.4141 165.711 23.4141C166.82 23.4141 167.935 23.6823 169.055 24.2188L168.273 26.1875C167.846 25.9844 167.417 25.8073 166.984 25.6562C166.552 25.5052 166.128 25.4297 165.711 25.4297ZM166.914 36.9531C166.914 37.6198 166.716 38.1016 166.32 38.3984C165.93 38.6953 165.323 38.8438 164.5 38.8438C164.094 38.8438 163.714 38.7891 163.359 38.6797V37.3672C163.5 37.4036 163.688 37.4401 163.922 37.4766C164.161 37.513 164.346 37.5312 164.477 37.5312C164.852 37.5312 165.039 37.3698 165.039 37.0469C165.039 36.6146 164.607 36.3333 163.742 36.2031L164.352 35H165.859L165.648 35.4766C166.034 35.6016 166.341 35.7943 166.57 36.0547C166.799 36.3203 166.914 36.6198 166.914 36.9531ZM178.055 35L177.227 32.2812H173.062L172.234 35H169.625L173.656 23.5312H176.617L180.664 35H178.055ZM176.648 30.25C175.883 27.7865 175.451 26.3932 175.352 26.0703C175.258 25.7474 175.19 25.4922 175.148 25.3047C174.977 25.9714 174.484 27.6198 173.672 30.25H176.648ZM186.945 35L184.195 26.0391H184.125C184.224 27.862 184.273 29.0781 184.273 29.6875V35H182.109V23.5781H185.406L188.109 32.3125H188.156L191.023 23.5781H194.32V35H192.062V29.5938C192.062 29.3385 192.065 29.0443 192.07 28.7109C192.081 28.3776 192.117 27.4922 192.18 26.0547H192.109L189.164 35H186.945ZM203.781 35H197.203V23.5781H203.781V25.5625H199.625V28.0703H203.492V30.0547H199.625V33H203.781V35ZM216.305 35H213.227L208.258 26.3594H208.188C208.286 27.8854 208.336 28.974 208.336 29.625V35H206.172V23.5781H209.227L214.188 32.1328H214.242C214.164 30.6484 214.125 29.599 214.125 28.9844V23.5781H216.305V35ZM223.594 35H221.172V25.5938H218.07V23.5781H226.695V25.5938H223.594V35ZM238.82 29.2734C238.82 31.1641 238.352 32.6172 237.414 33.6328C236.477 34.6484 235.133 35.1562 233.383 35.1562C231.633 35.1562 230.289 34.6484 229.352 33.6328C228.414 32.6172 227.945 31.1589 227.945 29.2578C227.945 27.3568 228.414 25.9062 229.352 24.9062C230.294 23.901 231.643 23.3984 233.398 23.3984C235.154 23.3984 236.495 23.9036 237.422 24.9141C238.354 25.9245 238.82 27.3776 238.82 29.2734ZM230.484 29.2734C230.484 30.5495 230.727 31.5104 231.211 32.1562C231.695 32.8021 232.419 33.125 233.383 33.125C235.315 33.125 236.281 31.8411 236.281 29.2734C236.281 26.7005 235.32 25.4141 233.398 25.4141C232.435 25.4141 231.708 25.7396 231.219 26.3906C230.729 27.0365 230.484 27.9974 230.484 29.2734Z" fill="white"/>
</svg>
