<svg width="40" height="41" viewBox="0 0 40 41" fill="none" xmlns="http://www.w3.org/2000/svg">
<path d="M40 20.2047C40 9.08999 31.044 0.0766602 20 0.0766602C8.95599 0.0766602 0 9.08999 0 20.2047C0 31.3194 8.95599 40.3327 20 40.3327C20.1175 40.3327 20.2344 40.3303 20.3516 40.3281V24.6593H16.0547V19.6196H20.3516V15.911C20.3516 11.61 22.9605 9.26905 26.7728 9.26905C28.5983 9.26905 30.1675 9.40603 30.625 9.46714V13.9623H27.9962C25.9222 13.9623 25.5206 14.9543 25.5206 16.4098V19.6196H30.4797L29.8334 24.6593H25.5206V39.5551C33.8803 37.1432 40 29.3922 40 20.2047Z" fill="white"/>
</svg>
